<svg width="500" height="500" viewBox="0 0 500 500" fill="none" xmlns="http://www.w3.org/2000/svg">
<path fill-rule="evenodd" clip-rule="evenodd" d="M210.879 3.1303C42.8191 29.2511 -50.1364 213.622 28.0756 365.702C119.945 544.339 379.769 544.339 471.638 365.702C565.434 183.32 413.224 -28.3231 210.879 3.1303ZM305.738 39.3067C457.211 79.4536 517.991 264.627 419.76 386.696C294.286 542.626 42.6836 460.564 32.3973 260.356C24.8927 114.286 164.047 1.75327 305.738 39.3067ZM299.146 140.587C291.747 147.352 139.61 329.265 133.309 338.884C125.24 351.197 136.389 368.283 150.23 364.812C153.826 363.909 181.813 332.53 224.867 281.134L293.751 198.904L295.005 278.746C296.392 367.107 296.101 365.702 313.042 365.702C330.384 365.702 330.121 367.48 330.121 250.323C330.121 148.32 329.963 144.818 325.104 139.96C318.44 133.296 306.814 133.577 299.146 140.587Z" fill="black"/>
</svg>
